PathFileType	4	(X/Y/Z)	66_2_32_p1_0-435.trc
DataRate	CameraRate	NumFrames	NumMarkers	Units	OrigDataRate	OrigDataStartFrame	OrigNumFrames
59.0	59.0	4	27	m	59.0	0	436
Frame#	Time	RHip			RKnee			RAnkle			RBigToe			RSmallToe			RHeel			LHip			LKnee			LAnkle			LBigToe			LSmallToe			LHeel			Neck			Head			Nose			RShoulder			RElbow			RWrist			RThumb			RIndex			RPinky			LShoulder			LElbow			LWrist			LThumb			LIndex			LPinky			
		X1	Y1	Z1	X2	Y2	Z2	X3	Y3	Z3	X4	Y4	Z4	X5	Y5	Z5	X6	Y6	Z6	X7	Y7	Z7	X8	Y8	Z8	X9	Y9	Z9	X10	Y10	Z10	X11	Y11	Z11	X12	Y12	Z12	X13	Y13	Z13	X14	Y14	Z14	X15	Y15	Z15	X16	Y16	Z16	X17	Y17	Z17	X18	Y18	Z18	X19	Y19	Z19	X20	Y20	Z20	X21	Y21	Z21	X22	Y22	Z22	X23	Y23	Z23	X24	Y24	Z24	X25	Y25	Z25	X26	Y26	Z26	X27	Y27	Z27	
0	0.0	0.5419727619326352	0.9142345235093973	0.7227745494312376	0.5204997366731231	0.9974635204425266	1.1786702391152344	0.4985606971173631	1.171900089979978	1.5890700670711544	0.47367595480763375	0.916420259614354	1.6504721455990645	0.5442050129012901	0.9964658335327985	1.6480751078907678	0.4856827024496575	1.2335438256940212	1.6393293471223402	0.35336407953070176	0.9400911943597552	0.7353908263010935	0.3254201208193976	1.0427525890211715	1.1881704136719826	0.31866964601674125	1.1501494314559049	1.5831299794735985	0.3341175118667353	0.9188798627871597	1.6363284916316942	0.28077160301393866	1.0135009441904634	1.6449979888176283	0.35062844441842056	1.2350993643925199	1.641020147904628	0.44042008392772525	0.7960663576115105	0.17102149135796174	0.4378497652478304	0.7271629939754586	-0.07658070858829935	0.43178159734205035	0.6126971578427397	0.06707654622981017	0.5727559199449643	0.768318888657751	0.26374356531339543	0.595511133410602	0.8006597166819007	0.5402830369304686	0.48464592499562464	0.7553083871302207	0.7523443835847595	0.3919443137479884	0.8102573604307738	0.8337291857187257	0.39720476718320347	0.8334762239965606	0.8623975196254677	0.43738045680160065	0.7861953459129021	0.8811620683668782	0.3121258567792493	0.8390108356667048	0.2626575720011997	0.26605519401385813	0.8762712068371432	0.522129786251988	0.36113884403586605	0.7652634977012456	0.7292798501410556	0.42849296748499066	0.7265194806002623	0.8051126754107732	0.43108296193472945	0.7309109552511661	0.8382182584471157	0.39167060369055406	0.8001090381626389	0.8487877976842252
1	0.01694915254237288	0.54291068283599	0.9167253149261544	0.7270984150277613	0.5259892292036803	1.0150817354883226	1.1867314263979096	0.5026393030103448	1.1868544258596774	1.5992797825456284	0.4799863011248139	0.9497853866541168	1.654157976868235	0.5433687257795877	1.0212212927245699	1.6578374950523262	0.4903701567531945	1.2454430728327746	1.6486822817897018	0.34848897426771375	0.9551593353534759	0.7410929827388212	0.32644905384116235	1.0413284568572208	1.1839408204921316	0.3243575158026026	1.1570764456011757	1.5900519324270872	0.3304647821396289	0.9476018181923043	1.6384975504877157	0.28261480594301014	1.0148435156511995	1.6412274636912192	0.3520232431052009	1.226594143556597	1.641871210283894	0.4411069639873881	0.8110840616323389	0.17317224761587943	0.43843391986742036	0.7244588303485872	-0.07970276510740307	0.43129215820758127	0.611620946707127	0.06741963915307589	0.5768786092425072	0.7683901206501297	0.26363519651178474	0.5954478432745356	0.8004704834555036	0.5403171167091442	0.4883623535681547	0.7682533948096619	0.7539070566834516	0.39228552401845385	0.8111785990547272	0.8382550434017653	0.3975164953421495	0.8377612278853221	0.8712844571012359	0.4378687760505413	0.7865275517026858	0.880988003001678	0.31204825902784245	0.8391746700364868	0.262572643202073	0.2653975029589395	0.8761973957609959	0.5253075452239604	0.3619934806771691	0.7674168841468443	0.7334548518530145	0.4244621378792086	0.726295980782591	0.8063482438123525	0.42687085928195856	0.7296419628790671	0.8377282905871214	0.39062498421329556	0.8010344244279214	0.8522364996192
2	0.03389830508474576	0.5424022005271271	0.914062741919757	0.7226466558906711	0.5294304169842766	1.019007790403135	1.1882839507306229	0.4988981522567241	1.2061223956219584	1.6058101016872395	0.47922011816685056	0.9500542255275296	1.654026749156472	0.5503703558677804	1.0168293963426664	1.6603509017945919	0.4895439316970195	1.24514114742075	1.6480958139449084	0.3486975594930203	0.9556803434985922	0.7409751739545666	0.326260588758939	1.04206625694543	1.18016425358667	0.32427677078298545	1.1566771566897749	1.5896813690972584	0.33025994746457144	0.9481696421244448	1.638675981182541	0.28247293060593576	1.0152327062972084	1.6413878736005008	0.34589695261371356	1.2435557372401096	1.6441872796781685	0.4412042855145514	0.810512994366305	0.16985853111616472	0.44171199397893623	0.7111010741987277	-0.0774974953518232	0.4315028804110049	0.613070049335076	0.0705944683668261	0.5767363502052492	0.7683503496577253	0.26365505798906425	0.5952332354226524	0.800142047659375	0.540378930790501	0.48888563465563195	0.7703153843835513	0.7577191162237913	0.39201668943018275	0.8095905175671667	0.8377300036134909	0.3967126783832602	0.8370871657484865	0.8709680227995193	0.4378582713880381	0.7864920087729818	0.8809593141534475	0.3123536920336721	0.8386006472386922	0.2593083997953718	0.2658507888219559	0.8763489428468137	0.5222117048370868	0.3618027444121648	0.7679241357925838	0.7298706858851209	0.4242809158116911	0.7266497126644376	0.8064467205971704	0.4260695745408045	0.7315354254740389	0.8422552339420462	0.39052987883905715	0.8021924808461132	0.8530207321124638
3	0.05084745762711865	0.5468694877176234	0.9153431966327301	0.722833276093294	0.5294378999314433	1.018938414636976	1.1883547966778076	0.49426056140537106	1.1892616240660527	1.600329100486102	0.4793654229489523	0.9510751528043491	1.6544307429143021	0.5463097733564308	1.003930246712227	1.6554854148000788	0.49084717226412267	1.248420998090033	1.6536337682692932	0.34820429265874847	0.956557681416774	0.7449706174392023	0.32632941698296464	1.0423137478233975	1.1802557561446823	0.3244153696115455	1.1570064814280616	1.5898471251399382	0.3304487380253088	0.9482800292796576	1.6388135014477687	0.2829445616861968	1.015815743309528	1.6416656893513102	0.350204400976063	1.260236972677677	1.650174461993944	0.44463804820191755	0.7967771204282644	0.17097404612569292	0.4418025726837383	0.7103205004656524	-0.07745627231545958	0.43159166420019707	0.6132405827950085	0.07056759297953326	0.5767567868621754	0.7682523177759522	0.26366954318736513	0.595365416277848	0.8002914807412014	0.5403032463973846	0.48839111195721385	0.7681285790722777	0.7538902141924054	0.39196415538761054	0.8099019134946377	0.8376815712478506	0.39697070835201204	0.8371964769894664	0.870966718799476	0.4378392081218344	0.7865263424754452	0.8810605949199752	0.3120468973809219	0.8391368375440489	0.26258597852130583	0.2659241196011992	0.8761316172169492	0.522180782444561	0.3618651858856937	0.7680223700590811	0.7298648072376585	0.42435023748810347	0.7264359199887171	0.806392437851292	0.4269409920555796	0.72989212572626	0.8379006460387945	0.3906424319352247	0.8015241753488958	0.8526857237943444
